<mxfile host="app.diagrams.net" modified="2023-06-10T12:27:14.262Z" agent="Mozilla/5.0 (Windows NT 10.0; Win64; x64) AppleWebKit/537.36 (KHTML, like Gecko) Chrome/114.0.0.0 Safari/537.36 Edg/114.0.1823.43" etag="7Ug6X1YdKf2gt99PjUWX" version="21.3.7" type="github">
  <diagram name="Page-1" id="DEplJcsXbeCydqCadZd_">
    <mxGraphModel dx="1434" dy="764" grid="1" gridSize="10" guides="1" tooltips="1" connect="1" arrows="1" fold="1" page="1" pageScale="1" pageWidth="1654" pageHeight="1169" math="0" shadow="0">
      <root>
        <mxCell id="0" />
        <mxCell id="1" parent="0" />
        <mxCell id="ekEvpRSYrw9iDIU7RBnw-32" value="" style="rounded=0;whiteSpace=wrap;html=1;" parent="1" vertex="1">
          <mxGeometry x="203" y="195" width="1370" height="570" as="geometry" />
        </mxCell>
        <mxCell id="ekEvpRSYrw9iDIU7RBnw-2" value="" style="rounded=0;whiteSpace=wrap;html=1;fillColor=#dae8fc;strokeColor=#6c8ebf;" parent="1" vertex="1">
          <mxGeometry x="221" y="245" width="1160" height="160" as="geometry" />
        </mxCell>
        <mxCell id="ekEvpRSYrw9iDIU7RBnw-3" value="" style="rounded=0;whiteSpace=wrap;html=1;fillColor=#d5e8d4;strokeColor=#82b366;" parent="1" vertex="1">
          <mxGeometry x="221" y="565" width="1160" height="160" as="geometry" />
        </mxCell>
        <mxCell id="ekEvpRSYrw9iDIU7RBnw-4" value="Version Control" style="rounded=1;whiteSpace=wrap;html=1;fillColor=#e1d5e7;strokeColor=#9673a6;" parent="1" vertex="1">
          <mxGeometry x="261" y="445" width="570" height="80" as="geometry" />
        </mxCell>
        <mxCell id="ekEvpRSYrw9iDIU7RBnw-19" value="" style="edgeStyle=orthogonalEdgeStyle;rounded=0;orthogonalLoop=1;jettySize=auto;html=1;" parent="1" source="ekEvpRSYrw9iDIU7RBnw-5" target="ekEvpRSYrw9iDIU7RBnw-6" edge="1">
          <mxGeometry relative="1" as="geometry" />
        </mxCell>
        <mxCell id="ekEvpRSYrw9iDIU7RBnw-23" value="" style="edgeStyle=orthogonalEdgeStyle;rounded=0;orthogonalLoop=1;jettySize=auto;html=1;" parent="1" source="ekEvpRSYrw9iDIU7RBnw-5" target="ekEvpRSYrw9iDIU7RBnw-4" edge="1">
          <mxGeometry relative="1" as="geometry">
            <Array as="points">
              <mxPoint x="341" y="535" />
              <mxPoint x="341" y="535" />
            </Array>
          </mxGeometry>
        </mxCell>
        <mxCell id="ekEvpRSYrw9iDIU7RBnw-5" value="IaC Coding" style="rounded=1;whiteSpace=wrap;html=1;fillColor=#dae8fc;strokeColor=#6c8ebf;gradientColor=#7ea6e0;" parent="1" vertex="1">
          <mxGeometry x="261" y="605" width="160" height="80" as="geometry" />
        </mxCell>
        <mxCell id="ekEvpRSYrw9iDIU7RBnw-20" value="" style="edgeStyle=orthogonalEdgeStyle;rounded=0;orthogonalLoop=1;jettySize=auto;html=1;" parent="1" source="ekEvpRSYrw9iDIU7RBnw-6" target="ekEvpRSYrw9iDIU7RBnw-7" edge="1">
          <mxGeometry relative="1" as="geometry" />
        </mxCell>
        <mxCell id="ekEvpRSYrw9iDIU7RBnw-6" value="Build AMI" style="rounded=1;whiteSpace=wrap;html=1;fillColor=#dae8fc;strokeColor=#6c8ebf;gradientColor=#7ea6e0;" parent="1" vertex="1">
          <mxGeometry x="461" y="605" width="160" height="80" as="geometry" />
        </mxCell>
        <mxCell id="ekEvpRSYrw9iDIU7RBnw-21" value="" style="edgeStyle=orthogonalEdgeStyle;rounded=0;orthogonalLoop=1;jettySize=auto;html=1;" parent="1" source="ekEvpRSYrw9iDIU7RBnw-7" target="ekEvpRSYrw9iDIU7RBnw-8" edge="1">
          <mxGeometry relative="1" as="geometry" />
        </mxCell>
        <mxCell id="ekEvpRSYrw9iDIU7RBnw-7" value="Verify Templates" style="rounded=1;whiteSpace=wrap;html=1;fillColor=#dae8fc;strokeColor=#6c8ebf;gradientColor=#7ea6e0;" parent="1" vertex="1">
          <mxGeometry x="661" y="605" width="160" height="80" as="geometry" />
        </mxCell>
        <mxCell id="ekEvpRSYrw9iDIU7RBnw-22" value="" style="edgeStyle=orthogonalEdgeStyle;rounded=0;orthogonalLoop=1;jettySize=auto;html=1;" parent="1" source="ekEvpRSYrw9iDIU7RBnw-8" target="ekEvpRSYrw9iDIU7RBnw-9" edge="1">
          <mxGeometry relative="1" as="geometry" />
        </mxCell>
        <mxCell id="ekEvpRSYrw9iDIU7RBnw-24" value="" style="edgeStyle=orthogonalEdgeStyle;rounded=0;orthogonalLoop=1;jettySize=auto;html=1;" parent="1" source="ekEvpRSYrw9iDIU7RBnw-8" target="ekEvpRSYrw9iDIU7RBnw-15" edge="1">
          <mxGeometry relative="1" as="geometry">
            <Array as="points">
              <mxPoint x="941" y="555" />
              <mxPoint x="941" y="555" />
            </Array>
          </mxGeometry>
        </mxCell>
        <mxCell id="ekEvpRSYrw9iDIU7RBnw-8" value="Package Templates" style="rounded=1;whiteSpace=wrap;html=1;fillColor=#dae8fc;strokeColor=#6c8ebf;gradientColor=#7ea6e0;" parent="1" vertex="1">
          <mxGeometry x="861" y="605" width="160" height="80" as="geometry" />
        </mxCell>
        <mxCell id="ekEvpRSYrw9iDIU7RBnw-44" value="" style="edgeStyle=orthogonalEdgeStyle;rounded=0;orthogonalLoop=1;jettySize=auto;html=1;" parent="1" source="ekEvpRSYrw9iDIU7RBnw-9" target="ekEvpRSYrw9iDIU7RBnw-43" edge="1">
          <mxGeometry relative="1" as="geometry" />
        </mxCell>
        <mxCell id="ekEvpRSYrw9iDIU7RBnw-9" value="Deploy Infrastructure" style="rounded=1;whiteSpace=wrap;html=1;fillColor=#dae8fc;strokeColor=#6c8ebf;gradientColor=#7ea6e0;" parent="1" vertex="1">
          <mxGeometry x="1061" y="605" width="160" height="80" as="geometry" />
        </mxCell>
        <mxCell id="ekEvpRSYrw9iDIU7RBnw-25" value="" style="edgeStyle=orthogonalEdgeStyle;rounded=0;orthogonalLoop=1;jettySize=auto;html=1;" parent="1" source="ekEvpRSYrw9iDIU7RBnw-10" target="ekEvpRSYrw9iDIU7RBnw-4" edge="1">
          <mxGeometry relative="1" as="geometry">
            <Array as="points">
              <mxPoint x="348" y="425" />
              <mxPoint x="348" y="425" />
            </Array>
          </mxGeometry>
        </mxCell>
        <mxCell id="ekEvpRSYrw9iDIU7RBnw-28" value="" style="edgeStyle=orthogonalEdgeStyle;rounded=0;orthogonalLoop=1;jettySize=auto;html=1;" parent="1" source="ekEvpRSYrw9iDIU7RBnw-10" target="ekEvpRSYrw9iDIU7RBnw-11" edge="1">
          <mxGeometry relative="1" as="geometry" />
        </mxCell>
        <mxCell id="ekEvpRSYrw9iDIU7RBnw-10" value="App Coding" style="rounded=1;whiteSpace=wrap;html=1;fillColor=#fff2cc;strokeColor=#d6b656;" parent="1" vertex="1">
          <mxGeometry x="268" y="285" width="160" height="80" as="geometry" />
        </mxCell>
        <mxCell id="ekEvpRSYrw9iDIU7RBnw-29" value="" style="edgeStyle=orthogonalEdgeStyle;rounded=0;orthogonalLoop=1;jettySize=auto;html=1;" parent="1" source="ekEvpRSYrw9iDIU7RBnw-11" target="ekEvpRSYrw9iDIU7RBnw-12" edge="1">
          <mxGeometry relative="1" as="geometry" />
        </mxCell>
        <mxCell id="ekEvpRSYrw9iDIU7RBnw-11" value="Building Apps/Images" style="rounded=1;whiteSpace=wrap;html=1;fillColor=#fff2cc;strokeColor=#d6b656;" parent="1" vertex="1">
          <mxGeometry x="468" y="285" width="160" height="80" as="geometry" />
        </mxCell>
        <mxCell id="ekEvpRSYrw9iDIU7RBnw-30" value="" style="edgeStyle=orthogonalEdgeStyle;rounded=0;orthogonalLoop=1;jettySize=auto;html=1;" parent="1" source="ekEvpRSYrw9iDIU7RBnw-12" target="ekEvpRSYrw9iDIU7RBnw-13" edge="1">
          <mxGeometry relative="1" as="geometry" />
        </mxCell>
        <mxCell id="ekEvpRSYrw9iDIU7RBnw-12" value="Unit Test" style="rounded=1;whiteSpace=wrap;html=1;fillColor=#fff2cc;strokeColor=#d6b656;" parent="1" vertex="1">
          <mxGeometry x="668" y="285" width="160" height="80" as="geometry" />
        </mxCell>
        <mxCell id="ekEvpRSYrw9iDIU7RBnw-26" value="" style="edgeStyle=orthogonalEdgeStyle;rounded=0;orthogonalLoop=1;jettySize=auto;html=1;" parent="1" source="ekEvpRSYrw9iDIU7RBnw-13" target="ekEvpRSYrw9iDIU7RBnw-15" edge="1">
          <mxGeometry relative="1" as="geometry">
            <Array as="points">
              <mxPoint x="948" y="435" />
              <mxPoint x="948" y="435" />
            </Array>
          </mxGeometry>
        </mxCell>
        <mxCell id="ekEvpRSYrw9iDIU7RBnw-31" value="" style="edgeStyle=orthogonalEdgeStyle;rounded=0;orthogonalLoop=1;jettySize=auto;html=1;" parent="1" source="ekEvpRSYrw9iDIU7RBnw-13" target="ekEvpRSYrw9iDIU7RBnw-14" edge="1">
          <mxGeometry relative="1" as="geometry" />
        </mxCell>
        <mxCell id="ekEvpRSYrw9iDIU7RBnw-13" value="Package Apps" style="rounded=1;whiteSpace=wrap;html=1;fillColor=#fff2cc;strokeColor=#d6b656;" parent="1" vertex="1">
          <mxGeometry x="868" y="285" width="160" height="80" as="geometry" />
        </mxCell>
        <mxCell id="ekEvpRSYrw9iDIU7RBnw-45" value="" style="edgeStyle=orthogonalEdgeStyle;rounded=0;orthogonalLoop=1;jettySize=auto;html=1;" parent="1" source="ekEvpRSYrw9iDIU7RBnw-14" target="ekEvpRSYrw9iDIU7RBnw-41" edge="1">
          <mxGeometry relative="1" as="geometry" />
        </mxCell>
        <mxCell id="ekEvpRSYrw9iDIU7RBnw-14" value="Deploy Apps" style="rounded=1;whiteSpace=wrap;html=1;fillColor=#fff2cc;strokeColor=#d6b656;" parent="1" vertex="1">
          <mxGeometry x="1068" y="285" width="160" height="80" as="geometry" />
        </mxCell>
        <mxCell id="ekEvpRSYrw9iDIU7RBnw-15" value="Artifacts" style="rounded=1;whiteSpace=wrap;html=1;fillColor=#e1d5e7;strokeColor=#9673a6;" parent="1" vertex="1">
          <mxGeometry x="861" y="445" width="370" height="80" as="geometry" />
        </mxCell>
        <mxCell id="ekEvpRSYrw9iDIU7RBnw-27" value="" style="edgeStyle=orthogonalEdgeStyle;rounded=0;orthogonalLoop=1;jettySize=auto;html=1;" parent="1" source="ekEvpRSYrw9iDIU7RBnw-16" target="ekEvpRSYrw9iDIU7RBnw-10" edge="1">
          <mxGeometry relative="1" as="geometry" />
        </mxCell>
        <mxCell id="ekEvpRSYrw9iDIU7RBnw-16" value="Developers" style="image;aspect=fixed;html=1;points=[];align=center;fontSize=12;image=img/lib/azure2/identity/Users.svg;" parent="1" vertex="1">
          <mxGeometry x="101" y="290" width="64" height="70" as="geometry" />
        </mxCell>
        <mxCell id="ekEvpRSYrw9iDIU7RBnw-18" style="edgeStyle=orthogonalEdgeStyle;rounded=0;orthogonalLoop=1;jettySize=auto;html=1;" parent="1" source="ekEvpRSYrw9iDIU7RBnw-17" target="ekEvpRSYrw9iDIU7RBnw-5" edge="1">
          <mxGeometry relative="1" as="geometry" />
        </mxCell>
        <mxCell id="ekEvpRSYrw9iDIU7RBnw-17" value="Admins" style="image;aspect=fixed;html=1;points=[];align=center;fontSize=12;image=img/lib/azure2/identity/Users.svg;" parent="1" vertex="1">
          <mxGeometry x="101" y="610" width="64" height="70" as="geometry" />
        </mxCell>
        <mxCell id="ekEvpRSYrw9iDIU7RBnw-34" value="ENV" style="rounded=0;whiteSpace=wrap;html=1;fillColor=#bac8d3;strokeColor=#23445d;align=center;" parent="1" vertex="1">
          <mxGeometry x="1403" y="245" width="160" height="480" as="geometry" />
        </mxCell>
        <mxCell id="ekEvpRSYrw9iDIU7RBnw-35" value="Dev" style="rounded=1;whiteSpace=wrap;html=1;" parent="1" vertex="1">
          <mxGeometry x="1423" y="290" width="120" height="60" as="geometry" />
        </mxCell>
        <mxCell id="ekEvpRSYrw9iDIU7RBnw-36" value="UAT" style="rounded=1;whiteSpace=wrap;html=1;" parent="1" vertex="1">
          <mxGeometry x="1423" y="395" width="120" height="60" as="geometry" />
        </mxCell>
        <mxCell id="ekEvpRSYrw9iDIU7RBnw-37" value="Prod" style="rounded=1;whiteSpace=wrap;html=1;" parent="1" vertex="1">
          <mxGeometry x="1423" y="505" width="120" height="60" as="geometry" />
        </mxCell>
        <mxCell id="ekEvpRSYrw9iDIU7RBnw-38" value="DR" style="rounded=1;whiteSpace=wrap;html=1;" parent="1" vertex="1">
          <mxGeometry x="1423" y="615" width="120" height="60" as="geometry" />
        </mxCell>
        <mxCell id="ekEvpRSYrw9iDIU7RBnw-47" style="rounded=0;orthogonalLoop=1;jettySize=auto;html=1;" parent="1" source="ekEvpRSYrw9iDIU7RBnw-41" edge="1">
          <mxGeometry relative="1" as="geometry">
            <mxPoint x="1401" y="325" as="targetPoint" />
          </mxGeometry>
        </mxCell>
        <mxCell id="ekEvpRSYrw9iDIU7RBnw-41" value="code Deploy" style="sketch=0;points=[[0,0,0],[0.25,0,0],[0.5,0,0],[0.75,0,0],[1,0,0],[0,1,0],[0.25,1,0],[0.5,1,0],[0.75,1,0],[1,1,0],[0,0.25,0],[0,0.5,0],[0,0.75,0],[1,0.25,0],[1,0.5,0],[1,0.75,0]];outlineConnect=0;fontColor=#232F3E;gradientColor=#4D72F3;gradientDirection=north;fillColor=#3334B9;strokeColor=#ffffff;dashed=0;verticalLabelPosition=bottom;verticalAlign=top;align=center;html=1;fontSize=12;fontStyle=0;aspect=fixed;shape=mxgraph.aws4.resourceIcon;resIcon=mxgraph.aws4.codedeploy;" parent="1" vertex="1">
          <mxGeometry x="1268" y="286" width="78" height="78" as="geometry" />
        </mxCell>
        <mxCell id="ekEvpRSYrw9iDIU7RBnw-42" value="" style="sketch=0;points=[[0,0,0],[0.25,0,0],[0.5,0,0],[0.75,0,0],[1,0,0],[0,1,0],[0.25,1,0],[0.5,1,0],[0.75,1,0],[1,1,0],[0,0.25,0],[0,0.5,0],[0,0.75,0],[1,0.25,0],[1,0.5,0],[1,0.75,0]];outlineConnect=0;fontColor=#232F3E;gradientColor=#4D72F3;gradientDirection=north;fillColor=#3334B9;strokeColor=#ffffff;dashed=0;verticalLabelPosition=bottom;verticalAlign=top;align=center;html=1;fontSize=12;fontStyle=0;aspect=fixed;shape=mxgraph.aws4.resourceIcon;resIcon=mxgraph.aws4.codepipeline;" parent="1" vertex="1">
          <mxGeometry x="681" y="160" width="78" height="78" as="geometry" />
        </mxCell>
        <mxCell id="ekEvpRSYrw9iDIU7RBnw-48" style="rounded=0;orthogonalLoop=1;jettySize=auto;html=1;entryX=0.013;entryY=0.835;entryDx=0;entryDy=0;entryPerimeter=0;" parent="1" source="ekEvpRSYrw9iDIU7RBnw-43" target="ekEvpRSYrw9iDIU7RBnw-34" edge="1">
          <mxGeometry relative="1" as="geometry" />
        </mxCell>
        <mxCell id="ekEvpRSYrw9iDIU7RBnw-43" value="CloudFormation" style="sketch=0;points=[[0,0,0],[0.25,0,0],[0.5,0,0],[0.75,0,0],[1,0,0],[0,1,0],[0.25,1,0],[0.5,1,0],[0.75,1,0],[1,1,0],[0,0.25,0],[0,0.5,0],[0,0.75,0],[1,0.25,0],[1,0.5,0],[1,0.75,0]];points=[[0,0,0],[0.25,0,0],[0.5,0,0],[0.75,0,0],[1,0,0],[0,1,0],[0.25,1,0],[0.5,1,0],[0.75,1,0],[1,1,0],[0,0.25,0],[0,0.5,0],[0,0.75,0],[1,0.25,0],[1,0.5,0],[1,0.75,0]];outlineConnect=0;fontColor=#232F3E;gradientColor=#F34482;gradientDirection=north;fillColor=#BC1356;strokeColor=#ffffff;dashed=0;verticalLabelPosition=bottom;verticalAlign=top;align=center;html=1;fontSize=12;fontStyle=0;aspect=fixed;shape=mxgraph.aws4.resourceIcon;resIcon=mxgraph.aws4.cloudformation;" parent="1" vertex="1">
          <mxGeometry x="1268" y="606" width="78" height="78" as="geometry" />
        </mxCell>
        <mxCell id="ekEvpRSYrw9iDIU7RBnw-49" value="CodePipeLine/DevOps" style="text;strokeColor=none;align=center;fillColor=none;html=1;verticalAlign=middle;whiteSpace=wrap;rounded=0;" parent="1" vertex="1">
          <mxGeometry x="801" y="205" width="140" height="30" as="geometry" />
        </mxCell>
        <mxCell id="ekEvpRSYrw9iDIU7RBnw-50" value="" style="image;aspect=fixed;html=1;points=[];align=center;fontSize=12;image=img/lib/azure2/devops/Azure_DevOps.svg;" parent="1" vertex="1">
          <mxGeometry x="964" y="167" width="64" height="64" as="geometry" />
        </mxCell>
      </root>
    </mxGraphModel>
  </diagram>
</mxfile>
